<svg width="24" height="24" viewBox="0 0 24 24" fill="none" xmlns="http://www.w3.org/2000/svg">
<rect width="24" height="24" rx="3.5" fill="white"/>
<path d="M11.1667 20.3333H6.58333C6.0308 20.3333 5.5009 20.1138 5.11019 19.7231C4.71949 19.3324 4.5 18.8025 4.5 18.25C4.5 17.6975 4.71949 17.1676 5.11019 16.7769C5.5009 16.3862 6.0308 16.1667 6.58333 16.1667H10.3342" stroke="black" stroke-width="2.5" stroke-linecap="round" stroke-linejoin="round"/>
<path d="M19.5 20.3333L17.9342 18.7683" stroke="black" stroke-width="2.5" stroke-linecap="round" stroke-linejoin="round"/>
<path d="M4.5 18.25V5.75C4.5 5.19746 4.71949 4.66756 5.11019 4.27686C5.5009 3.88616 6.0308 3.66667 6.58333 3.66667H17C17.221 3.66667 17.433 3.75446 17.5893 3.91074C17.7455 4.06702 17.8333 4.27899 17.8333 4.5V11.1667" stroke="black" stroke-width="2.5" stroke-linecap="round" stroke-linejoin="round"/>
<path d="M16.1667 19.5C17.5474 19.5 18.6667 18.3807 18.6667 17C18.6667 15.6193 17.5474 14.5 16.1667 14.5C14.786 14.5 13.6667 15.6193 13.6667 17C13.6667 18.3807 14.786 19.5 16.1667 19.5Z" stroke="black" stroke-width="2.5" stroke-linecap="round" stroke-linejoin="round"/>
</svg>
