<svg width="100" height="40" viewBox="0 0 100 40" fill="none" xmlns="http://www.w3.org/2000/svg">
<path d="M44.8828 17.0527C44.4076 17.4303 43.7891 17.7233 43.0273 17.9316C42.2656 18.14 41.3281 18.2441 40.2148 18.2441C39.1081 18.2441 37.9297 18.1432 36.6797 17.9414V5.07031C37.9427 4.86849 39.0365 4.76758 39.9609 4.76758C40.8919 4.76758 41.6536 4.85547 42.2461 5.03125C42.8451 5.20703 43.3333 5.44466 43.7109 5.74414C44.4531 6.32357 44.8242 7.07552 44.8242 8C44.8242 8.91797 44.4889 9.67969 43.8184 10.2852C44.6126 10.5326 45.2279 11.0013 45.6641 11.6914C46.0612 12.3099 46.2598 12.9967 46.2598 13.752C46.2598 14.5007 46.1491 15.1419 45.9277 15.6758C45.7129 16.2096 45.3646 16.6686 44.8828 17.0527ZM39.2676 9.92383C39.541 9.9694 39.8828 9.99219 40.293 9.99219C40.7031 9.99219 41.0384 9.9401 41.2988 9.83594C41.5658 9.72526 41.7708 9.58854 41.9141 9.42578C42.1484 9.15885 42.2656 8.78776 42.2656 8.3125C42.2656 7.31641 41.6797 6.81836 40.5078 6.81836C40.013 6.81836 39.5996 6.83789 39.2676 6.87695V9.92383ZM40.7129 12.0137C40.166 12.0137 39.6842 12.0495 39.2676 12.1211V15.959C39.7233 16.0762 40.2018 16.1348 40.7031 16.1348C41.2044 16.1348 41.6439 16.0762 42.0215 15.959C42.4056 15.8353 42.7279 15.6693 42.9883 15.4609C43.5156 15.0312 43.7793 14.4844 43.7793 13.8203C43.7793 12.6159 42.7572 12.0137 40.7129 12.0137ZM49.4434 16.457C48.8509 15.8906 48.3822 15.2103 48.0371 14.416C47.6986 13.6217 47.5293 12.7526 47.5293 11.8086C47.5293 10.8581 47.6888 9.95964 48.0078 9.11328C48.3268 8.26693 48.7826 7.52148 49.375 6.87695C49.9674 6.23242 50.6836 5.72135 51.5234 5.34375C52.3633 4.95964 53.304 4.76758 54.3457 4.76758C56.1426 4.76758 57.6562 5.33398 58.8867 6.4668C60.2018 7.67773 60.8594 9.31185 60.8594 11.3691C60.8594 13.3613 60.1823 15.0182 58.8281 16.3398C57.9948 17.1536 57.002 17.7135 55.8496 18.0195C55.2832 18.1693 54.6191 18.2441 53.8574 18.2441C53.1022 18.2441 52.3242 18.0879 51.5234 17.7754C50.7292 17.4629 50.0358 17.0234 49.4434 16.457ZM50.2441 11.6719C50.2441 12.2773 50.3451 12.834 50.5469 13.3418C50.7487 13.8496 51.0286 14.2858 51.3867 14.6504C52.1484 15.4186 53.1283 15.8027 54.3262 15.8027C55.4655 15.8027 56.3802 15.4349 57.0703 14.6992C57.7734 13.9375 58.125 12.8991 58.125 11.584C58.125 10.347 57.7897 9.3151 57.1191 8.48828C56.3965 7.60286 55.4069 7.16016 54.1504 7.16016C52.9329 7.16016 51.9661 7.60938 51.25 8.50781C50.5794 9.34766 50.2441 10.4023 50.2441 11.6719ZM64.4434 16.457C63.8509 15.8906 63.3822 15.2103 63.0371 14.416C62.6986 13.6217 62.5293 12.7526 62.5293 11.8086C62.5293 10.8581 62.6888 9.95964 63.0078 9.11328C63.3268 8.26693 63.7826 7.52148 64.375 6.87695C64.9674 6.23242 65.6836 5.72135 66.5234 5.34375C67.3633 4.95964 68.304 4.76758 69.3457 4.76758C71.1426 4.76758 72.6562 5.33398 73.8867 6.4668C75.2018 7.67773 75.8594 9.31185 75.8594 11.3691C75.8594 13.3613 75.1823 15.0182 73.8281 16.3398C72.9948 17.1536 72.002 17.7135 70.8496 18.0195C70.2832 18.1693 69.6191 18.2441 68.8574 18.2441C68.1022 18.2441 67.3242 18.0879 66.5234 17.7754C65.7292 17.4629 65.0358 17.0234 64.4434 16.457ZM65.2441 11.6719C65.2441 12.2773 65.3451 12.834 65.5469 13.3418C65.7487 13.8496 66.0286 14.2858 66.3867 14.6504C67.1484 15.4186 68.1283 15.8027 69.3262 15.8027C70.4655 15.8027 71.3802 15.4349 72.0703 14.6992C72.7734 13.9375 73.125 12.8991 73.125 11.584C73.125 10.347 72.7897 9.3151 72.1191 8.48828C71.3965 7.60286 70.4069 7.16016 69.1504 7.16016C67.9329 7.16016 66.9661 7.60938 66.25 8.50781C65.5794 9.34766 65.2441 10.4023 65.2441 11.6719ZM80.8691 18.0586C80.4199 18.0195 79.847 18 79.1504 18H78.3789V4.97266L78.7695 4.99219C79.043 5.00521 79.248 5.01172 79.3848 5.01172H79.668C80.2409 5.01172 80.6413 4.98568 80.8691 4.93359V10.4512L84.8242 4.97266C85.2409 4.9987 85.5924 5.01172 85.8789 5.01172H86.416C87.0866 5.01172 87.5651 4.98568 87.8516 4.93359L84.082 9.85547L87.793 17.2188C87.9492 17.5768 88.0957 17.8372 88.2324 18H87.6367C86.263 18 85.4069 18.026 85.0684 18.0781C84.9967 17.6419 84.8991 17.2611 84.7754 16.9355L82.2852 12.1895L80.8691 14.0449V18.0586ZM43.5254 30.3848C43.2129 30.3522 42.8092 30.3359 42.3145 30.3359H39.3555V36H36.6797V22.9434C36.8555 22.9564 37.0573 22.9661 37.2852 22.9727L38.0078 22.9922C38.5026 23.0052 39.0169 23.0117 39.5508 23.0117C41.1523 23.0117 42.6823 22.9857 44.1406 22.9336C44.069 23.5065 44.0332 24.2715 44.0332 25.2285C44.0332 25.3327 44.0397 25.4108 44.0527 25.4629L44.0332 25.4922C43.6882 25.3945 43.2064 25.3457 42.5879 25.3457H39.3555V28.0312H42.207C42.9232 28.0312 43.3529 28.0117 43.4961 27.9727L43.5254 30.3848ZM46.9629 22.9727C47.6139 22.9987 48.0078 23.0117 48.1445 23.0117H48.8477C49.1927 23.0117 49.4694 22.9857 49.6777 22.9336L49.668 36H46.9629V22.9727ZM53.4277 36C53.4668 35.7786 53.4863 35.5378 53.4863 35.2773V23.0117H55.4395L60.6152 31.1562V23.6758C60.6152 23.3177 60.5827 23.0964 60.5176 23.0117H63.1543C63.1217 23.2721 63.1055 23.5586 63.1055 23.8711V36H61.0742L55.9766 28.1777V36H53.4277ZM69.7852 36.2441C68.7305 36.2441 67.7376 36.1595 66.8066 35.9902V22.9238C67.666 22.8197 68.6621 22.7676 69.7949 22.7676C70.9342 22.7676 71.9629 22.9238 72.8809 23.2363C73.8053 23.5423 74.5768 23.9818 75.1953 24.5547C76.4453 25.7005 77.0703 27.3053 77.0703 29.3691C77.0703 31.6803 76.3737 33.4349 74.9805 34.6328C73.7305 35.707 71.9987 36.2441 69.7852 36.2441ZM69.3457 33.8613C69.7689 33.9395 70.1921 33.9785 70.6152 33.9785C71.0384 33.9785 71.4941 33.8971 71.9824 33.7344C72.4707 33.5651 72.8939 33.3047 73.252 32.9531C74.0202 32.2109 74.4043 31.1302 74.4043 29.7109C74.4043 27.3802 73.5547 25.9479 71.8555 25.4141C71.2956 25.2383 70.6478 25.1504 69.9121 25.1504H69.6484C69.5508 25.1504 69.4499 25.1536 69.3457 25.1602V33.8613ZM86.4746 33.6562C86.8783 33.6562 87.1582 33.6172 87.3145 33.5391L87.3535 33.5488L87.2559 36H79.9414V22.9434C80.1172 22.9564 80.3125 22.9661 80.5273 22.9727L81.2109 22.9922C81.6667 23.0052 82.1615 23.0117 82.6953 23.0117C84.1862 23.0117 85.6608 22.9857 87.1191 22.9336C87.0475 23.5065 87.0117 24.2715 87.0117 25.2285C87.0117 25.3327 87.0182 25.4108 87.0312 25.4629L87.0117 25.4922C86.6732 25.3945 86.1914 25.3457 85.5664 25.3457H82.4902V27.8359H84.8047C85.5208 27.8359 85.9505 27.8164 86.0938 27.7773L86.123 30.1895C85.8105 30.1569 85.4069 30.1406 84.9121 30.1406H82.4902V33.6562H86.4746ZM94.1602 30.9512C93.9648 30.9642 93.7565 30.9707 93.5352 30.9707C93.3138 30.9707 92.985 30.9544 92.5488 30.9219V36H89.9609V22.9434C90.8724 22.8262 91.9922 22.7676 93.3203 22.7676C95.1302 22.7676 96.4779 23.1029 97.3633 23.7734C98.2552 24.4375 98.7012 25.4661 98.7012 26.8594C98.7012 27.9401 98.2943 28.8646 97.4805 29.6328C97.2135 29.8802 96.9076 30.0951 96.5625 30.2773L98.5547 34.4766C98.9453 35.3424 99.2448 35.8568 99.4531 36.0195L99.4043 36.0684C98.7728 35.9642 97.7799 35.9674 96.4258 36.0781L94.1602 30.9512ZM93.5059 25.0723C93.1738 25.0723 92.8548 25.0885 92.5488 25.1211V28.8516C92.8678 28.8971 93.2422 28.9199 93.6719 28.9199C94.1016 28.9199 94.4629 28.8841 94.7559 28.8125C95.0488 28.7344 95.3027 28.6172 95.5176 28.4609C95.9798 28.1159 96.2109 27.5983 96.2109 26.9082C96.2109 26.2181 95.9701 25.7331 95.4883 25.4531C95.0391 25.1992 94.3783 25.0723 93.5059 25.0723Z" fill="white"/>
<rect x="6" width="24" height="40" fill="#F0B100"/>
<path d="M0 2C0 0.895431 0.895431 0 2 0H4V40H2C0.895431 40 0 39.1046 0 38V2Z" fill="#F0B100"/>
</svg>
